<svg width="33" height="35" viewBox="0 0 33 35" fill="none" xmlns="http://www.w3.org/2000/svg">
<g filter="url(#filter0_d_83_4)">
<path fill-rule="evenodd" clip-rule="evenodd" d="M4.95234 19.121L5.102 19.4582C5.29815 19.8673 5.59539 20.2196 5.96562 20.4818L14.1151 26.2408C14.484 26.5025 14.9154 26.6625 15.3657 26.7046L15.7382 26.739C16.1882 26.7805 16.6424 26.7019 17.0526 26.5118L26.1192 22.3279C26.5284 22.1387 26.8817 21.8459 27.1416 21.4783L27.3514 21.1742C27.6137 20.8052 27.7741 20.3735 27.8164 19.9227L28.7335 9.98088C28.775 9.53079 28.6964 9.07665 28.5053 8.66636L28.3556 8.32918C28.16 7.9235 27.8681 7.5722 27.5059 7.30681L19.3425 1.54657C18.9755 1.27973 18.5434 1.11936 18.092 1.08173L17.7335 1.04866C17.2824 1.00705 16.8283 1.08567 16.418 1.27679L7.3514 5.45963C6.93777 5.64341 6.5842 5.93817 6.32903 6.3093L6.10618 6.61312C5.84671 6.98331 5.68665 7.41392 5.64133 7.86371L4.72422 17.8055C4.6836 18.2564 4.76228 18.7101 4.95234 19.121ZM15.9748 24.1739L15.6024 24.1395L8.48524 19.1105L16.5921 15.3814L23.88 20.5296L15.9748 24.1739ZM16.3333 4.15417L8.4292 7.79752L8.20744 8.10043L7.40744 16.7726L15.5154 13.0316L16.3333 4.15417Z" fill="#161616"/>
</g>
<g filter="url(#filter1_d_83_4)">
<path d="M15.9768 24.2172L15.6044 24.1829L8.48736 19.1529L16.5941 15.4248L23.882 20.573L15.9768 24.2172ZM8.42412 7.80909L16.3282 4.16575L15.5093 13.0431L7.40136 16.7841L8.20136 8.11191L8.42412 7.80909Z" fill="white"/>
</g>
<defs>
<filter id="filter0_d_83_4" x="0.713806" y="1.03782" width="32.0305" height="33.712" filterUnits="userSpaceOnUse" color-interpolation-filters="sRGB">
<feFlood flood-opacity="0" result="BackgroundImageFix"/>
<feColorMatrix in="SourceAlpha" type="matrix" values="0 0 0 0 0 0 0 0 0 0 0 0 0 0 0 0 0 0 127 0" result="hardAlpha"/>
<feOffset dy="4"/>
<feGaussianBlur stdDeviation="2"/>
<feComposite in2="hardAlpha" operator="out"/>
<feColorMatrix type="matrix" values="0 0 0 0 0 0 0 0 0 0 0 0 0 0 0 0 0 0 0.25 0"/>
<feBlend mode="normal" in2="BackgroundImageFix" result="effect1_dropShadow_83_4"/>
<feBlend mode="normal" in="SourceGraphic" in2="effect1_dropShadow_83_4" result="shape"/>
</filter>
<filter id="filter1_d_83_4" x="3.40136" y="4.16575" width="24.4806" height="28.0515" filterUnits="userSpaceOnUse" color-interpolation-filters="sRGB">
<feFlood flood-opacity="0" result="BackgroundImageFix"/>
<feColorMatrix in="SourceAlpha" type="matrix" values="0 0 0 0 0 0 0 0 0 0 0 0 0 0 0 0 0 0 127 0" result="hardAlpha"/>
<feOffset dy="4"/>
<feGaussianBlur stdDeviation="2"/>
<feComposite in2="hardAlpha" operator="out"/>
<feColorMatrix type="matrix" values="0 0 0 0 0 0 0 0 0 0 0 0 0 0 0 0 0 0 0.25 0"/>
<feBlend mode="normal" in2="BackgroundImageFix" result="effect1_dropShadow_83_4"/>
<feBlend mode="normal" in="SourceGraphic" in2="effect1_dropShadow_83_4" result="shape"/>
</filter>
</defs>
</svg>
