<svg width="98" height="36" viewBox="0 0 98 36" fill="none" xmlns="http://www.w3.org/2000/svg">
<g filter="url(#filter0_d_76_16)">
<path fill-rule="evenodd" clip-rule="evenodd" d="M4.81798 20.1104L4.96764 20.4476C5.1638 20.8567 5.46104 21.209 5.83126 21.4713L13.9807 27.2302C14.3497 27.4919 14.781 27.6519 15.2314 27.694L15.6038 27.7284C16.0539 27.7699 16.508 27.6913 16.9182 27.5012L25.9849 23.3174C26.394 23.1281 26.7474 22.8354 27.0073 22.4677L27.2171 22.1637C27.4794 21.7946 27.6397 21.3629 27.682 20.9121L28.5991 10.9703C28.6407 10.5202 28.562 10.0661 28.3709 9.65577L28.2213 9.31859C28.0257 8.91291 27.7337 8.56161 27.3716 8.29622L19.2082 2.53599C18.8412 2.26914 18.4091 2.10877 17.9576 2.07114L17.5991 2.03808C17.148 1.99646 16.6939 2.07508 16.2836 2.2662L7.21705 6.44904C6.80341 6.63282 6.44984 6.92759 6.19467 7.29872L5.97182 7.60253C5.71236 7.97272 5.5523 8.40333 5.50698 8.85312L4.58986 18.7949C4.54925 19.2458 4.62792 19.6995 4.81798 20.1104ZM15.8404 25.1633L15.468 25.1289L8.35089 20.0999L16.4577 16.3708L23.7456 21.519L15.8404 25.1633ZM16.1989 5.14359L8.29485 8.78693L8.07308 9.08984L7.27308 17.762L15.381 14.021L16.1989 5.14359Z" fill="#161616"/>
</g>
<g filter="url(#filter1_d_76_16)">
<path d="M15.8425 25.2067L15.47 25.1723L8.353 20.1423L16.4597 16.4142L23.7476 21.5624L15.8425 25.2067ZM8.28976 8.79851L16.1939 5.15516L15.3749 14.0325L7.267 17.7735L8.067 9.10132L8.28976 8.79851Z" fill="white"/>
</g>
<path d="M35.48 22V7.8H41C44.52 7.8 46.44 9 46.44 11.66C46.44 13.36 45.4 14.44 43.58 14.66C45.82 14.88 47.04 16.12 47.04 18.08C47.04 20.72 45.12 22 41.68 22H35.48ZM41.54 19.52C43 19.52 43.98 18.94 43.98 17.72C43.98 16.52 43 15.88 41.54 15.88H38.52V19.52H41.54ZM40.92 13.68C42.42 13.68 43.38 13.1 43.38 11.98C43.38 10.8 42.46 10.28 40.92 10.28H38.52V13.68H40.92ZM51.1825 22C49.4425 22 48.3825 21.18 48.3825 19.2V7.8H51.3825V18.88C51.3825 19.52 51.6825 19.76 52.2425 19.76H52.9625V22H51.1825ZM58.6888 22.24C55.4087 22.24 53.2488 20.04 53.2488 16.64C53.2488 13.26 55.4087 11.04 58.6888 11.04C61.9688 11.04 64.1288 13.26 64.1288 16.64C64.1288 20.04 61.9688 22.24 58.6888 22.24ZM58.6888 19.94C60.1888 19.94 61.0288 18.72 61.0288 16.64C61.0288 14.56 60.1888 13.34 58.6888 13.34C57.1888 13.34 56.3288 14.56 56.3288 16.64C56.3288 18.72 57.1888 19.94 58.6888 19.94ZM65.0544 22V7.8H68.0544V15.68L72.0344 11.28H75.6344L71.4744 15.7L75.7544 22H72.4744L69.5344 17.4L68.0544 18.98V22H65.0544ZM79.3056 22.24C77.0656 22.24 75.5456 21.16 75.5456 19.32C75.5456 17.44 76.7256 16.48 79.0656 16L82.5256 15.32C82.5256 13.92 81.8856 13.22 80.6856 13.22C79.5656 13.22 78.9256 13.76 78.7256 14.76L75.7256 14.62C76.1256 12.26 77.9056 11.04 80.6856 11.04C83.8856 11.04 85.5256 12.6 85.5256 15.52V19.18C85.5256 19.78 85.7256 19.94 86.1256 19.94H86.4256V22C86.2256 22.06 85.7656 22.12 85.3456 22.12C84.2456 22.12 83.2656 21.74 83.0056 20.38C82.4456 21.52 81.1256 22.24 79.3056 22.24ZM80.0256 20.18C81.5256 20.18 82.5256 19.26 82.5256 17.72V17.2L80.0856 17.72C79.1056 17.92 78.6256 18.34 78.6256 19.04C78.6256 19.76 79.1056 20.18 80.0256 20.18ZM87.4895 25V22.76H88.9095C89.5895 22.76 89.8495 22.6 90.0495 22.08L90.2895 21.46H89.4695L85.6895 11.28H88.7695L91.2095 18.66L93.5295 11.28H96.5895L92.4695 23.02C91.9695 24.44 91.1495 25 89.5295 25H87.4895Z" fill="black"/>
<defs>
<filter id="filter0_d_76_16" x="0.579451" y="2.02723" width="32.0305" height="33.712" filterUnits="userSpaceOnUse" color-interpolation-filters="sRGB">
<feFlood flood-opacity="0" result="BackgroundImageFix"/>
<feColorMatrix in="SourceAlpha" type="matrix" values="0 0 0 0 0 0 0 0 0 0 0 0 0 0 0 0 0 0 127 0" result="hardAlpha"/>
<feOffset dy="4"/>
<feGaussianBlur stdDeviation="2"/>
<feComposite in2="hardAlpha" operator="out"/>
<feColorMatrix type="matrix" values="0 0 0 0 0 0 0 0 0 0 0 0 0 0 0 0 0 0 0.25 0"/>
<feBlend mode="normal" in2="BackgroundImageFix" result="effect1_dropShadow_76_16"/>
<feBlend mode="normal" in="SourceGraphic" in2="effect1_dropShadow_76_16" result="shape"/>
</filter>
<filter id="filter1_d_76_16" x="3.267" y="5.15516" width="24.4806" height="28.0515" filterUnits="userSpaceOnUse" color-interpolation-filters="sRGB">
<feFlood flood-opacity="0" result="BackgroundImageFix"/>
<feColorMatrix in="SourceAlpha" type="matrix" values="0 0 0 0 0 0 0 0 0 0 0 0 0 0 0 0 0 0 127 0" result="hardAlpha"/>
<feOffset dy="4"/>
<feGaussianBlur stdDeviation="2"/>
<feComposite in2="hardAlpha" operator="out"/>
<feColorMatrix type="matrix" values="0 0 0 0 0 0 0 0 0 0 0 0 0 0 0 0 0 0 0.25 0"/>
<feBlend mode="normal" in2="BackgroundImageFix" result="effect1_dropShadow_76_16"/>
<feBlend mode="normal" in="SourceGraphic" in2="effect1_dropShadow_76_16" result="shape"/>
</filter>
</defs>
</svg>
