<svg width="191" height="98" viewBox="0 0 191 98" fill="none" xmlns="http://www.w3.org/2000/svg">
<path d="M0.849854 82.9526V57.3937H4.57246V75.2827C6.62878 71.1171 10.9068 68.6707 16.1303 68.6707C24.1871 68.6707 30.353 74.5588 30.353 83.0057C30.353 91.4525 24.2401 97.5622 15.5187 97.5622C6.79728 97.5622 0.849854 91.7833 0.849854 82.9495V82.9526ZM26.5742 83.1211C26.5742 76.7868 22.1308 72.1218 15.5749 72.1218C9.01898 72.1218 4.57558 76.7899 4.57558 83.1211C4.57558 89.4523 8.96593 94.1204 15.5749 94.1204C22.1838 94.1204 26.5742 89.4523 26.5742 83.1211Z" fill="#371267"/>
<path d="M33.0178 83.1211C33.0178 74.7866 39.1306 68.6769 47.7959 68.6769C56.4612 68.6769 62.4648 74.7897 62.4648 83.1211V84.3443H36.8528C37.352 90.067 41.63 94.1235 47.799 94.1235C52.1332 94.1235 55.4658 92.3449 57.2444 89.1777H61.3009C59.1884 94.2327 54.1895 97.5684 47.799 97.5684C39.1306 97.5684 33.0209 91.4556 33.0209 83.1242L33.0178 83.1211ZM58.5737 81.0086C57.6843 75.4512 53.3501 72.1187 47.7959 72.1187C42.2416 72.1187 37.7951 75.6197 36.962 81.0086H58.5737Z" fill="#371267"/>
<path d="M66.2404 80.7871C66.2404 72.6211 71.0177 68.6738 77.3521 68.6738C81.7955 68.6738 85.465 70.7863 87.2405 74.8397C88.963 70.7832 92.6294 68.6738 97.129 68.6738C103.463 68.6738 108.241 72.618 108.241 80.7871V96.8445H104.518V80.7871C104.518 74.952 101.295 72.1187 96.8513 72.1187C92.4079 72.1187 89.1283 75.0643 89.1283 80.7871V96.8445H85.4057V80.7871C85.4057 75.0643 82.0732 72.1187 77.6267 72.1187C73.1801 72.1187 69.9599 74.952 69.9599 80.7871V96.8445H66.2373V80.7871H66.2404Z" fill="#371267"/>
<path d="M112.022 83.1211C112.022 74.7866 118.135 68.6769 126.801 68.6769C135.466 68.6769 141.579 74.7897 141.579 83.1211C141.579 91.4525 135.466 97.5653 126.801 97.5653C118.135 97.5653 112.022 91.4525 112.022 83.1211ZM137.8 83.1211C137.8 76.7867 133.356 72.1218 126.801 72.1218C120.245 72.1218 115.801 76.7898 115.801 83.1211C115.801 89.4523 120.245 94.1204 126.801 94.1204C133.356 94.1204 137.8 89.4523 137.8 83.1211Z" fill="#371267"/>
<path d="M142.468 69.3977H146.634L157.078 93.2873L167.521 69.3977H171.578L159.243 96.8445H154.8L142.465 69.3977H142.468Z" fill="#371267"/>
<path d="M174.97 61.2286C174.97 59.6185 176.193 58.3953 177.803 58.3953C179.413 58.3953 180.636 59.6185 180.636 61.2286C180.636 62.8387 179.413 64.0619 177.803 64.0619C176.193 64.0619 174.97 62.8387 174.97 61.2286ZM175.971 69.3977H179.694V96.8445H175.971V69.3977Z" fill="#371267"/>
<path d="M186.637 57.3967H190.359V96.8445H186.637V57.3967Z" fill="#371267"/>
<path d="M65.6006 29.2544C65.6006 29.2544 65.6163 29.2576 65.6226 29.2607C65.6132 29.245 65.6006 29.2292 65.6006 29.2135V29.2576V29.2544Z" fill="#F65002"/>
<path d="M139.297 46.1821L139.191 45.789C138.858 44.5377 137.609 43.8013 136.339 44.1102C126.354 46.5597 115.782 46.8842 105.769 45.0463C104.487 44.8123 103.279 45.6205 103.02 46.8904C102.761 48.1573 103.02 49.4304 103.747 50.4726C104.48 51.5211 105.594 52.2075 106.883 52.4041C110.799 52.997 114.812 53.2997 118.812 53.2997C124.635 53.2997 130.464 52.6663 136.14 51.4212C137.263 51.1747 138.215 50.4913 138.82 49.5022C139.422 48.513 139.597 47.3055 139.297 46.1884V46.1821Z" fill="#F65002"/>
<path d="M139.828 19.9398C139.815 19.4874 139.616 19.0536 139.282 18.7509C138.945 18.4452 138.508 18.2954 138.059 18.3266L136.433 18.4389C134.477 18.5731 132.898 20.0896 132.682 22.0461C132.383 24.7577 131.266 27.2883 129.456 29.3664C127.094 32.078 123.82 33.7038 120.235 33.9503C115.077 34.2997 110.256 31.7192 107.685 27.2976C117.48 23.6936 126.254 17.7555 133.11 10.0732C133.743 9.36175 134.062 8.44748 134.002 7.49577C133.943 6.54406 133.515 5.67659 132.795 5.0494C128.66 1.44849 123.374 -0.330116 117.901 0.0505696C112.275 0.437495 107.423 3.00556 103.866 7.47081C100.592 11.5803 98.7514 16.9474 98.6828 22.5859V22.6296C97.1288 22.9666 94.8291 23.3753 93.0193 23.6811C94.0303 21.631 94.5389 19.3719 94.5046 17.0503C94.386 9.13708 87.7365 2.69664 79.6828 2.69664H74.01C65.975 2.69664 59.4378 9.23382 59.4378 17.2688V20.9976C59.338 20.9633 59.235 20.9321 59.1321 20.8978C57.6561 20.411 55.9836 19.8587 54.723 19.2752C53.9054 18.9007 52.9256 19.2533 52.5387 20.0615L51.7118 21.7933C51.303 22.6483 51.2625 23.6062 51.5995 24.4924C51.9365 25.388 52.6105 26.0869 53.4967 26.4614C55.0444 27.1198 56.9915 27.7126 58.7139 28.2369C58.9604 28.3118 59.2007 28.3866 59.4441 28.4584V39.3329C59.4441 47.3679 65.9813 53.905 74.0162 53.905H84.8189C92.7603 53.905 99.4004 47.5551 99.6157 39.7479C99.7125 36.2344 98.586 32.9081 96.4111 30.2183C96.4954 30.2027 96.5796 30.1871 96.6639 30.1715C98.0524 29.9188 99.7093 29.6192 100.801 29.3883C104.49 37.0831 112.606 41.7762 121.268 40.9586C126.42 40.4718 131.16 38.0754 134.617 34.2093C138.14 30.2682 139.99 25.2008 139.834 19.9336L139.828 19.9398ZM124.036 7.95135C124.607 8.17602 124.675 8.32579 124.685 8.35387C124.685 8.35387 124.744 8.58478 124.076 9.19637C119.028 13.8239 113.018 17.5465 106.428 20.1614C106.468 19.7807 106.509 19.375 106.549 18.9444C106.599 18.4077 106.643 17.9428 106.68 17.7337C107.37 13.8707 109.801 10.4632 113.18 8.62223C115.071 7.5925 117.208 7.06828 119.349 7.06828C120.947 7.06828 122.544 7.35848 124.039 7.94823L124.036 7.95135ZM80.1415 31.6755C83.4772 31.585 86.919 31.4883 89.3622 33.2139C91.353 34.6212 92.545 36.9115 92.545 39.3423C92.545 43.4768 89.1812 46.8405 85.0467 46.8405H74.0131C69.8786 46.8405 66.5148 43.4768 66.5148 39.3423V30.4118C67.1202 30.5584 67.6756 30.6926 68.1593 30.8081L68.2404 30.8237C71.3109 31.273 75.7699 31.635 76.2598 31.6693C77.4954 31.7504 78.7841 31.7161 80.1477 31.6755H80.1415ZM80.4411 24.7514C75.6731 24.7046 70.9926 24.1492 66.5086 23.1007V17.2719C66.5086 13.1374 69.8724 9.77364 74.0069 9.77364H79.739C83.8048 9.77364 87.1779 12.8628 87.4151 16.807C87.6616 20.9196 84.535 24.4737 80.4379 24.7514H80.4411Z" fill="#371267"/>
</svg>
