<svg width="117" height="72" viewBox="0 0 117 72" fill="none" xmlns="http://www.w3.org/2000/svg">
<path d="M47.0833 55C43.1733 55 40 58.1733 40 62.0833C40 65.9933 43.1733 69.1667 47.0833 69.1667C50.9933 69.1667 54.1667 65.9933 54.1667 62.0833C54.1667 58.1733 50.9933 55 47.0833 55ZM52.3675 60.0433L50.3983 60.8579C50.0371 59.8946 49.2792 59.1296 48.3088 58.7754L49.1233 56.8063C50.6108 57.3729 51.7938 58.5558 52.3675 60.0433ZM47.0833 64.2083C45.9075 64.2083 44.9583 63.2592 44.9583 62.0833C44.9583 60.9075 45.9075 59.9583 47.0833 59.9583C48.2592 59.9583 49.2083 60.9075 49.2083 62.0833C49.2083 63.2592 48.2592 64.2083 47.0833 64.2083ZM45.0504 56.7992L45.8792 58.7683C44.9017 59.1225 44.1296 59.8946 43.7683 60.8721L41.7992 60.0504C42.3729 58.5558 43.5558 57.3729 45.0504 56.7992ZM41.7992 64.1163L43.7683 63.3017C44.1296 64.2792 44.8946 65.0442 45.8721 65.3983L45.0433 67.3675C43.5558 66.7938 42.3729 65.6108 41.7992 64.1163ZM49.1233 67.3675L48.3088 65.3983C49.2792 65.0371 50.0442 64.2721 50.3983 63.2946L52.3675 64.1233C51.7938 65.6108 50.6108 66.7938 49.1233 67.3675Z" fill="black"/>
<path d="M20.95 49H11L1 22.5H10.65L16 38.85L21.3 22.5H30.95L20.95 49ZM29.6688 35.75C29.6688 33.0167 30.2688 30.6 31.4688 28.5C32.7021 26.4 34.4354 24.7833 36.6688 23.65C38.9021 22.4833 41.5021 21.9 44.4688 21.9C47.3354 21.9 49.8688 22.55 52.0688 23.85C54.2688 25.1167 55.9521 26.9167 57.1188 29.25C58.2854 31.5833 58.8021 34.2667 58.6688 37.3L58.6188 38.25H40.3688C40.4021 39.6167 40.7854 40.7167 41.5188 41.55C42.2521 42.35 43.2354 42.75 44.4688 42.75C45.3021 42.75 46.0521 42.5333 46.7188 42.1C47.4188 41.6333 47.9021 41.05 48.1688 40.35L58.3188 41.05C57.4854 43.6833 55.8188 45.7667 53.3188 47.3C50.8521 48.8333 47.9021 49.6 44.4688 49.6C41.5021 49.6 38.9021 49.0333 36.6688 47.9C34.4354 46.7333 32.7021 45.1 31.4688 43C30.2688 40.9 29.6688 38.4833 29.6688 35.75ZM48.4688 33C48.4021 31.6667 48.0021 30.6333 47.2688 29.9C46.5354 29.1333 45.6021 28.75 44.4688 28.75C43.2688 28.75 42.3021 29.1333 41.5688 29.9C40.8354 30.6667 40.4354 31.7 40.3688 33H48.4688ZM87.0785 22.4L77.6785 35.6L87.2285 49H76.3785L71.8785 41.7L67.3785 49H56.4785L66.0785 35.6L56.6785 22.4H67.4785L71.8785 29.4L76.2785 22.4H87.0785ZM99.7703 49.6C96.8036 49.6 94.187 49.0333 91.9203 47.9C89.687 46.7333 87.9536 45.1 86.7203 43C85.5203 40.9 84.9203 38.4833 84.9203 35.75C84.9203 33.0167 85.5203 30.6 86.7203 28.5C87.9536 26.4 89.687 24.7833 91.9203 23.65C94.187 22.4833 96.8036 21.9 99.7703 21.9C102.704 21.9 105.287 22.4833 107.52 23.65C109.787 24.7833 111.52 26.4 112.72 28.5C113.954 30.6 114.57 33.0167 114.57 35.75C114.57 38.4833 113.954 40.9 112.72 43C111.52 45.1 109.787 46.7333 107.52 47.9C105.287 49.0333 102.704 49.6 99.7703 49.6ZM99.7703 42.35C101.17 42.35 102.237 41.7833 102.97 40.65C103.704 39.5167 104.07 37.8833 104.07 35.75C104.07 33.6167 103.704 31.9833 102.97 30.85C102.237 29.7167 101.17 29.15 99.7703 29.15C98.337 29.15 97.2536 29.7167 96.5203 30.85C95.787 31.9833 95.4203 33.6167 95.4203 35.75C95.4203 37.8833 95.787 39.5167 96.5203 40.65C97.2536 41.7833 98.337 42.35 99.7703 42.35Z" fill="black"/>
<path d="M63.4997 60.812C63.409 60.3473 63.1653 59.979 62.7687 59.707C62.3833 59.4237 61.947 59.282 61.4597 59.282C60.9837 59.282 60.587 59.401 60.2697 59.639C59.9523 59.8657 59.7993 60.1717 59.8107 60.557C59.8107 60.9197 59.9977 61.203 60.3717 61.407C60.7457 61.611 61.2217 61.7697 61.7997 61.883C62.6157 62.0303 63.2843 62.206 63.8057 62.41C64.327 62.614 64.735 62.8973 65.0297 63.26C65.3243 63.6227 65.4717 64.0873 65.4717 64.654C65.4717 65.2207 65.296 65.6967 64.9447 66.082C64.6047 66.456 64.157 66.7393 63.6017 66.932C63.0577 67.1133 62.4627 67.204 61.8167 67.204C61.0573 67.204 60.3773 67.0793 59.7767 66.83C59.176 66.5807 58.7 66.2293 58.3487 65.776C57.9973 65.3113 57.799 64.773 57.7537 64.161L59.5727 64.042C59.6407 64.3933 59.7653 64.6937 59.9467 64.943C60.1393 65.181 60.3887 65.368 60.6947 65.504C61.012 65.6287 61.3803 65.691 61.7997 65.691C62.2757 65.691 62.7007 65.606 63.0747 65.436C63.4487 65.2547 63.6357 64.9713 63.6357 64.586C63.6243 64.314 63.5393 64.0987 63.3807 63.94C63.2333 63.7813 63.0463 63.6623 62.8197 63.583C62.593 63.5037 62.2813 63.4243 61.8847 63.345C61.794 63.3337 61.6637 63.3053 61.4937 63.26C60.7343 63.1013 60.111 62.9313 59.6237 62.75C59.1363 62.5573 58.7397 62.291 58.4337 61.951C58.1277 61.5997 57.9747 61.1577 57.9747 60.625C57.9747 60.047 58.122 59.5483 58.4167 59.129C58.7113 58.6983 59.1307 58.3697 59.6747 58.143C60.23 57.905 60.876 57.786 61.6127 57.786C62.576 57.786 63.3977 58.0523 64.0777 58.585C64.7577 59.1063 65.1713 59.8147 65.3187 60.71L63.4997 60.812ZM66.1507 62.495C66.1507 61.543 66.3264 60.7157 66.6777 60.013C67.0291 59.299 67.5277 58.7493 68.1737 58.364C68.8197 57.9787 69.5677 57.786 70.4177 57.786C71.1544 57.786 71.8174 57.9503 72.4067 58.279C73.0074 58.6077 73.4891 59.1177 73.8517 59.809C74.2257 60.5003 74.4297 61.3617 74.4637 62.393L74.4807 63.005H68.0037C68.0717 63.855 68.3154 64.5123 68.7347 64.977C69.1541 65.4417 69.7151 65.674 70.4177 65.674C70.8711 65.674 71.2847 65.555 71.6587 65.317C72.0327 65.0677 72.3104 64.7277 72.4917 64.297L74.3447 64.433C74.0841 65.2717 73.5911 65.946 72.8657 66.456C72.1517 66.9547 71.3357 67.204 70.4177 67.204C69.5677 67.204 68.8197 67.0113 68.1737 66.626C67.5277 66.2407 67.0291 65.6967 66.6777 64.994C66.3264 64.28 66.1507 63.447 66.1507 62.495ZM72.6107 61.645C72.4974 60.8403 72.2424 60.251 71.8457 59.877C71.4491 59.503 70.9731 59.316 70.4177 59.316C69.7604 59.316 69.2277 59.52 68.8197 59.928C68.4117 60.336 68.1511 60.9083 68.0377 61.645H72.6107ZM79.1911 66.541C78.3751 66.541 77.6611 66.3597 77.0491 65.997C76.4484 65.623 75.9837 65.1073 75.6551 64.45C75.3264 63.7813 75.1621 63.0277 75.1621 62.189C75.1621 61.339 75.3264 60.5797 75.6551 59.911C75.9951 59.2423 76.4711 58.721 77.0831 58.347C77.6951 57.973 78.3977 57.786 79.1911 57.786C79.7691 57.786 80.2847 57.9333 80.7381 58.228C81.2027 58.5113 81.5371 58.8967 81.7411 59.384V57.99H83.4411V66.065C83.4411 66.847 83.2654 67.51 82.9141 68.054C82.5741 68.6093 82.0924 69.0287 81.4691 69.312C80.8457 69.6067 80.1261 69.754 79.3101 69.754C78.6641 69.754 78.0691 69.6463 77.5251 69.431C76.9811 69.2157 76.5277 68.9097 76.1651 68.513C75.8024 68.1277 75.5474 67.6743 75.4001 67.153L77.2361 67.034C77.4061 67.4193 77.6667 67.7197 78.0181 67.935C78.3807 68.1503 78.8171 68.258 79.3271 68.258C80.0751 68.258 80.6531 68.0937 81.0611 67.765C81.4691 67.4477 81.6731 66.983 81.6731 66.371V65.045C81.4237 65.521 81.0667 65.8893 80.6021 66.15C80.1487 66.4107 79.6784 66.541 79.1911 66.541ZM76.9981 62.189C76.9981 62.7443 77.0944 63.2373 77.2871 63.668C77.4797 64.0987 77.7517 64.4387 78.1031 64.688C78.4657 64.926 78.8851 65.045 79.3611 65.045C79.8371 65.045 80.2507 64.926 80.6021 64.688C80.9534 64.4387 81.2254 64.0987 81.4181 63.668C81.6221 63.2373 81.7241 62.7443 81.7241 62.189C81.7241 61.6337 81.6277 61.1407 81.4351 60.71C81.2537 60.2793 80.9817 59.945 80.6191 59.707C80.2677 59.4577 79.8484 59.333 79.3611 59.333C78.8737 59.333 78.4544 59.4577 78.1031 59.707C77.7517 59.945 77.4797 60.2793 77.2871 60.71C77.0944 61.1407 76.9981 61.6337 76.9981 62.189ZM91.1129 67L91.0959 64.671L91.2999 64.841C91.1525 65.6457 90.8182 66.2407 90.2969 66.626C89.7755 67.0113 89.1522 67.204 88.4269 67.204C87.4635 67.204 86.7212 66.8867 86.1999 66.252C85.6785 65.6173 85.4179 64.7957 85.4179 63.787V57.99H87.1859V63.243C87.1859 63.7983 87.2425 64.2573 87.3559 64.62C87.4805 64.9713 87.6619 65.2433 87.8999 65.436C88.1492 65.6173 88.4779 65.708 88.8859 65.708C89.5319 65.708 90.0475 65.4983 90.4329 65.079C90.8182 64.6483 91.0109 64.0363 91.0109 63.243V57.99H92.7789V67H91.1129ZM96.258 57.99L96.326 60.421L96.19 60.302C96.292 59.4973 96.5243 58.9137 96.887 58.551C97.2497 58.177 97.771 57.99 98.451 57.99H99.318V59.452H98.434C97.9807 59.452 97.601 59.537 97.295 59.707C96.989 59.877 96.7623 60.132 96.615 60.472C96.479 60.8007 96.411 61.22 96.411 61.73V67H94.643V57.99H96.258ZM103.574 67.204C102.713 67.204 101.959 67.0113 101.313 66.626C100.679 66.2407 100.186 65.6967 99.8344 64.994C99.483 64.28 99.3074 63.447 99.3074 62.495C99.3074 61.543 99.483 60.7157 99.8344 60.013C100.186 59.299 100.679 58.7493 101.313 58.364C101.959 57.9787 102.713 57.786 103.574 57.786C104.424 57.786 105.172 57.9787 105.818 58.364C106.464 58.7493 106.963 59.299 107.314 60.013C107.666 60.7157 107.841 61.543 107.841 62.495C107.841 63.447 107.666 64.28 107.314 64.994C106.963 65.6967 106.464 66.2407 105.818 66.626C105.172 67.0113 104.424 67.204 103.574 67.204ZM103.574 65.657C104.345 65.657 104.94 65.3793 105.359 64.824C105.79 64.2687 106.005 63.4923 106.005 62.495C106.005 61.4977 105.79 60.7213 105.359 60.166C104.94 59.6107 104.345 59.333 103.574 59.333C102.792 59.333 102.192 59.6107 101.772 60.166C101.353 60.7213 101.143 61.4977 101.143 62.495C101.143 63.4923 101.353 64.2687 101.772 64.824C102.192 65.3793 102.792 65.657 103.574 65.657ZM114.264 60.812C114.173 60.3473 113.93 59.979 113.533 59.707C113.148 59.4237 112.711 59.282 112.224 59.282C111.748 59.282 111.351 59.401 111.034 59.639C110.717 59.8657 110.564 60.1717 110.575 60.557C110.575 60.9197 110.762 61.203 111.136 61.407C111.51 61.611 111.986 61.7697 112.564 61.883C113.38 62.0303 114.049 62.206 114.57 62.41C115.091 62.614 115.499 62.8973 115.794 63.26C116.089 63.6227 116.236 64.0873 116.236 64.654C116.236 65.2207 116.06 65.6967 115.709 66.082C115.369 66.456 114.921 66.7393 114.366 66.932C113.822 67.1133 113.227 67.204 112.581 67.204C111.822 67.204 111.142 67.0793 110.541 66.83C109.94 66.5807 109.464 66.2293 109.113 65.776C108.762 65.3113 108.563 64.773 108.518 64.161L110.337 64.042C110.405 64.3933 110.53 64.6937 110.711 64.943C110.904 65.181 111.153 65.368 111.459 65.504C111.776 65.6287 112.145 65.691 112.564 65.691C113.04 65.691 113.465 65.606 113.839 65.436C114.213 65.2547 114.4 64.9713 114.4 64.586C114.389 64.314 114.304 64.0987 114.145 63.94C113.998 63.7813 113.811 63.6623 113.584 63.583C113.357 63.5037 113.046 63.4243 112.649 63.345C112.558 63.3337 112.428 63.3053 112.258 63.26C111.499 63.1013 110.875 62.9313 110.388 62.75C109.901 62.5573 109.504 62.291 109.198 61.951C108.892 61.5997 108.739 61.1577 108.739 60.625C108.739 60.047 108.886 59.5483 109.181 59.129C109.476 58.6983 109.895 58.3697 110.439 58.143C110.994 57.905 111.64 57.786 112.377 57.786C113.34 57.786 114.162 58.0523 114.842 58.585C115.522 59.1063 115.936 59.8147 116.083 60.71L114.264 60.812Z" fill="black"/>
</svg>
