<svg fill="none" viewBox="0 0 576 112" height="112" width="576" xmlns="http://www.w3.org/2000/svg" class="h-6 w-auto text-white fill-current">
<path xmlns="http://www.w3.org/2000/svg" d="M185.82 60.2539C185.82 53.1835 184.08 47.7447 180.602 43.9376C177.123 40.1304 172.484 38.2268 166.687 38.2268C163.44 38.2268 160.889 38.3434 159.033 38.5765C157.255 38.8096 155.825 39.0815 154.743 39.3923V77.6191C156.057 78.7069 157.951 79.7558 160.425 80.7659C162.899 81.7759 165.604 82.281 168.542 82.281C171.634 82.281 174.263 81.7371 176.427 80.6493C178.669 79.4839 180.486 77.9299 181.877 75.9875C183.269 73.9674 184.273 71.6365 184.892 68.9948C185.51 66.2754 185.82 63.3618 185.82 60.2539ZM197.067 60.2539C197.067 64.838 196.449 69.0725 195.212 72.9573C194.053 76.8422 192.313 80.1831 189.994 82.9802C187.675 85.7773 184.815 87.9528 181.413 89.5068C178.089 91.0607 174.263 91.8377 169.933 91.8377C166.455 91.8377 163.363 91.3715 160.657 90.4391C158.028 89.5068 156.057 88.6133 154.743 87.7586V112H143.959V31.7003C146.51 31.0787 149.68 30.4183 153.467 29.719C157.333 28.9421 161.778 28.5536 166.803 28.5536C171.441 28.5536 175.615 29.2917 179.326 30.768C183.037 32.2442 186.206 34.342 188.834 37.0614C191.463 39.7808 193.473 43.1217 194.864 47.0843C196.333 50.9691 197.067 55.359 197.067 60.2539Z" fill="white"></path>
<path xmlns="http://www.w3.org/2000/svg" d="M229.346 91.6046C222.698 91.4492 217.982 90.0118 215.199 87.2924C212.416 84.573 211.025 80.3385 211.025 74.589V1.86472L221.809 0V72.8408C221.809 74.6278 221.964 76.1041 222.273 77.2695C222.582 78.435 223.084 79.3673 223.78 80.0666C224.476 80.7659 225.404 81.3097 226.563 81.6982C227.723 82.009 229.153 82.281 230.854 82.5141L229.346 91.6046Z" fill="white"></path>
<path xmlns="http://www.w3.org/2000/svg" d="M262.387 82.6306C264.938 82.6306 267.18 82.5918 269.112 82.5141C271.122 82.3587 272.784 82.1256 274.098 81.8148V63.7503C273.325 63.3618 272.05 63.051 270.272 62.8179C268.571 62.5071 266.484 62.3517 264.01 62.3517C262.387 62.3517 260.647 62.4683 258.792 62.7014C257.014 62.9344 255.352 63.4395 253.806 64.2164C252.337 64.9157 251.1 65.9258 250.095 67.2466C249.09 68.4898 248.588 70.1603 248.588 72.2581C248.588 76.1429 249.825 78.8623 252.298 80.4162C254.772 81.8925 258.135 82.6306 262.387 82.6306ZM261.459 28.3205C265.788 28.3205 269.422 28.9032 272.359 30.0687C275.374 31.1564 277.77 32.7492 279.548 34.847C281.404 36.8671 282.718 39.3146 283.491 42.1894C284.264 44.9865 284.651 48.0943 284.651 51.513V89.3902C283.723 89.5456 282.409 89.7787 280.708 90.0895C279.085 90.3226 277.229 90.5557 275.142 90.7888C273.055 91.0219 270.774 91.2161 268.301 91.3715C265.904 91.6046 263.508 91.7211 261.111 91.7211C257.71 91.7211 254.579 91.3715 251.719 90.6722C248.858 89.9729 246.385 88.8852 244.297 87.409C242.21 85.855 240.587 83.8349 239.427 81.3486C238.268 78.8623 237.688 75.871 237.688 72.3746C237.688 69.0336 238.345 66.1589 239.659 63.7503C241.051 61.3417 242.906 59.3992 245.225 57.923C247.544 56.4468 250.25 55.359 253.342 54.6597C256.434 53.9605 259.681 53.6108 263.083 53.6108C264.165 53.6108 265.286 53.6885 266.445 53.8439C267.605 53.9216 268.687 54.077 269.692 54.3101C270.774 54.4655 271.702 54.6209 272.475 54.7763C273.248 54.9317 273.789 55.0482 274.098 55.1259V52.0957C274.098 50.3087 273.905 48.5605 273.519 46.8512C273.132 45.0642 272.436 43.5102 271.431 42.1894C270.426 40.7908 269.035 39.7031 267.257 38.9261C265.556 38.0715 263.314 37.6441 260.531 37.6441C256.975 37.6441 253.845 37.9161 251.139 38.4599C248.511 38.9261 246.539 39.4311 245.225 39.975L243.95 31.001C245.341 30.3795 247.66 29.7967 250.907 29.2529C254.154 28.6313 257.671 28.3205 261.459 28.3205Z" fill="white"></path>
<path xmlns="http://www.w3.org/2000/svg" d="M311.664 29.8356H334.508V38.9261H311.664V66.897C311.664 69.9272 311.896 72.4523 312.36 74.4724C312.824 76.4148 313.519 77.9688 314.447 79.1342C315.375 80.222 316.534 80.999 317.926 81.4651C319.317 81.9313 320.941 82.1644 322.796 82.1644C326.043 82.1644 328.633 81.8148 330.565 81.1155C332.575 80.3385 333.967 79.7947 334.74 79.4839L336.827 88.4579C335.745 89.0017 333.851 89.6622 331.145 90.4391C328.439 91.2938 325.347 91.7211 321.868 91.7211C317.771 91.7211 314.37 91.2161 311.664 90.206C309.036 89.1183 306.91 87.5255 305.286 85.4277C303.663 83.3299 302.503 80.7659 301.808 77.7357C301.189 74.6278 300.88 71.0538 300.88 67.0135V12.9365L311.664 11.0718V29.8356Z" fill="white"></path>
<path xmlns="http://www.w3.org/2000/svg" d="M367.653 82.6306C370.204 82.6306 372.446 82.5918 374.379 82.5141C376.389 82.3587 378.051 82.1256 379.365 81.8148V63.7503C378.592 63.3618 377.316 63.051 375.538 62.8179C373.838 62.5071 371.751 62.3517 369.277 62.3517C367.653 62.3517 365.914 62.4683 364.059 62.7014C362.281 62.9344 360.619 63.4395 359.073 64.2164C357.604 64.9157 356.367 65.9258 355.362 67.2466C354.357 68.4898 353.854 70.1603 353.854 72.2581C353.854 76.1429 355.091 78.8623 357.565 80.4162C360.039 81.8925 363.402 82.6306 367.653 82.6306ZM366.726 28.3205C371.055 28.3205 374.688 28.9032 377.626 30.0687C380.641 31.1564 383.037 32.7492 384.815 34.847C386.67 36.8671 387.985 39.3146 388.758 42.1894C389.531 44.9865 389.917 48.0943 389.917 51.513V89.3902C388.99 89.5456 387.675 89.7787 385.975 90.0895C384.351 90.3226 382.496 90.5557 380.409 90.7888C378.321 91.0219 376.041 91.2161 373.567 91.3715C371.171 91.6046 368.774 91.7211 366.378 91.7211C362.976 91.7211 359.846 91.3715 356.985 90.6722C354.125 89.9729 351.651 88.8852 349.564 87.409C347.477 85.855 345.853 83.8349 344.694 81.3486C343.534 78.8623 342.954 75.871 342.954 72.3746C342.954 69.0336 343.612 66.1589 344.926 63.7503C346.317 61.3417 348.173 59.3992 350.492 57.923C352.811 56.4468 355.517 55.359 358.609 54.6597C361.701 53.9605 364.948 53.6108 368.349 53.6108C369.431 53.6108 370.552 53.6885 371.712 53.8439C372.871 53.9216 373.954 54.077 374.959 54.3101C376.041 54.4655 376.969 54.6209 377.742 54.7763C378.515 54.9317 379.056 55.0482 379.365 55.1259V52.0957C379.365 50.3087 379.172 48.5605 378.785 46.8512C378.399 45.0642 377.703 43.5102 376.698 42.1894C375.693 40.7908 374.302 39.7031 372.524 38.9261C370.823 38.0715 368.581 37.6441 365.798 37.6441C362.242 37.6441 359.111 37.9161 356.406 38.4599C353.777 38.9261 351.806 39.4311 350.492 39.975L349.216 31.001C350.608 30.3795 352.927 29.7967 356.174 29.2529C359.42 28.6313 362.938 28.3205 366.726 28.3205Z" fill="white"></path>
<path xmlns="http://www.w3.org/2000/svg" d="M406.842 31.5838C409.316 30.9622 412.602 30.3018 416.699 29.6025C420.796 28.9032 425.512 28.5536 430.846 28.5536C435.639 28.5536 439.62 29.2529 442.789 30.6514C445.959 31.9723 448.471 33.8758 450.326 36.3621C452.259 38.7707 453.612 41.6844 454.385 45.103C455.158 48.5217 455.545 52.29 455.545 56.4079V90.4391H444.76V58.7388C444.76 55.0094 444.49 51.8238 443.949 49.1821C443.485 46.5404 442.673 44.4037 441.514 42.7721C440.354 41.1405 438.808 39.975 436.875 39.2758C434.943 38.4988 432.546 38.1103 429.686 38.1103C428.526 38.1103 427.328 38.1491 426.091 38.2268C424.854 38.3045 423.656 38.4211 422.497 38.5765C421.414 38.6542 420.409 38.7707 419.482 38.9261C418.631 39.0815 418.013 39.1981 417.626 39.2758V90.4391H406.842V31.5838Z" fill="white"></path>
<path xmlns="http://www.w3.org/2000/svg" d="M520.448 88.6909C517.974 89.3125 514.689 89.9729 510.592 90.6722C506.572 91.3715 501.895 91.7211 496.561 91.7211C491.923 91.7211 488.019 91.0607 484.849 89.7399C481.68 88.3413 479.129 86.3989 477.196 83.9126C475.263 81.4263 473.872 78.5127 473.021 75.1717C472.171 71.753 471.746 67.9847 471.746 63.8668V29.8356H482.53V61.5359C482.53 68.9171 483.69 74.2005 486.009 77.3861C488.328 80.5716 492.232 82.1644 497.72 82.1644C498.88 82.1644 500.078 82.1256 501.315 82.0479C502.552 81.9702 503.712 81.8925 504.794 81.8148C505.876 81.6594 506.842 81.5428 507.693 81.4651C508.62 81.3097 509.277 81.1544 509.664 80.999V29.8356H520.448V88.6909Z" fill="white"></path>
<path xmlns="http://www.w3.org/2000/svg" d="M552.072 82.6306C556.478 82.6306 559.725 82.0479 561.812 80.8824C563.977 79.717 565.059 77.8522 565.059 75.2882C565.059 72.6466 564.015 70.5487 561.928 68.9948C559.841 67.4409 556.401 65.6927 551.608 63.7503C549.289 62.8179 547.047 61.8855 544.882 60.9532C542.795 59.9431 540.979 58.7777 539.432 57.4568C537.886 56.136 536.649 54.5432 535.722 52.6785C534.794 50.8137 534.33 48.5217 534.33 45.8023C534.33 40.4412 536.302 36.2067 540.244 33.0989C544.187 29.9133 549.559 28.3205 556.362 28.3205C558.063 28.3205 559.764 28.437 561.464 28.6701C563.165 28.8255 564.75 29.0586 566.219 29.3694C567.687 29.6025 568.963 29.8744 570.045 30.1852C571.205 30.496 572.094 30.768 572.712 31.001L570.741 40.3247C569.581 39.7031 567.765 39.0815 565.291 38.4599C562.817 37.7607 559.841 37.411 556.362 37.411C553.347 37.411 550.719 38.0326 548.477 39.2758C546.235 40.4412 545.114 42.3059 545.114 44.8699C545.114 46.1908 545.346 47.3562 545.81 48.3663C546.351 49.3763 547.124 50.3087 548.129 51.1634C549.211 51.9403 550.526 52.6785 552.072 53.3777C553.618 54.077 555.473 54.8151 557.638 55.5921C560.498 56.6798 563.049 57.7676 565.291 58.8554C567.533 59.8654 569.427 61.0697 570.973 62.4683C572.596 63.8668 573.833 65.5761 574.683 67.5963C575.534 69.5387 575.959 71.9473 575.959 74.8221C575.959 80.4162 573.872 84.6507 569.697 87.5255C565.6 90.4003 559.725 91.8377 552.072 91.8377C546.738 91.8377 542.563 91.3715 539.548 90.4391C536.533 89.5845 534.485 88.924 533.403 88.4579L535.374 79.1342C536.611 79.6004 538.582 80.2997 541.288 81.2321C543.993 82.1644 547.588 82.6306 552.072 82.6306Z" fill="white"></path>
<path xmlns="http://www.w3.org/2000/svg" d="M91.0127 0.232327C91.3608 0.464653 91.5929 0.69698 91.825 0.929306C102.617 16.2629 111.668 33.455 111.668 56.223C111.668 79.1072 102.269 96.2994 91.825 110.704C91.4768 111.052 91.3608 111.401 90.8966 111.749C90.4325 112.098 89.5042 111.981 89.5042 111.981H79.4087C79.4087 111.981 79.0606 111.981 78.9446 111.865C78.8285 111.633 78.9445 111.517 79.0606 111.401C83.122 103.269 87.1834 95.0216 90.2004 85.7285C93.1014 76.9001 96.0024 67.2585 96.2345 55.9907C96.5826 43.6774 94.842 36.2429 92.4052 28.3438C88.6919 16.4952 83.4701 7.08596 79.2927 0.929306C78.9445 0.464653 78.9445 0.34849 79.0606 0.116163C79.2927 0 79.6408 0 79.6408 0H89.6202C89.6202 0 90.6646 0 91.0127 0.232327Z" fill="#FFEC40"></path>
<path xmlns="http://www.w3.org/2000/svg" d="M82.89 20.9098C82.1938 19.1673 74.5352 2.0913 74.3031 1.62665C74.187 1.39432 74.071 1.51049 73.955 1.51049C73.8389 1.62665 73.7229 1.74281 73.8389 2.20747C74.5352 8.48028 74.7672 17.6572 72.7946 28.1119C71.5181 34.9655 69.8936 41.2383 64.6718 50.5314C60.0302 58.8951 53.9961 65.0518 48.3102 70.6276C42.3921 76.4358 36.0099 81.0823 29.7438 85.6127C29.6278 85.7289 29.5117 85.7289 29.5117 85.9612C29.5117 86.0774 29.8598 86.3097 29.8598 86.3097L37.5185 90.3754C37.5185 90.3754 38.2147 90.7239 38.6789 90.7239C39.143 90.6077 39.3751 90.4916 39.7232 90.3754C53.4159 83.5218 67.2246 74.3449 76.3918 57.0365C81.7296 46.9303 84.6306 36.9403 84.3985 27.2987C84.1665 24.5108 83.4702 22.4199 82.89 20.9098Z" fill="#F9BC12"></path>
<path xmlns="http://www.w3.org/2000/svg" d="M68.6171 19.6323C68.7332 18.1222 69.0813 3.02095 69.0813 2.67246C69.0813 2.32397 68.9653 2.32397 68.8492 2.32397C68.7332 2.32397 68.6171 2.44014 68.5011 2.78863C66.8765 7.55132 63.7435 14.2888 58.7538 21.2586C55.3886 25.789 52.0234 29.8547 45.0611 34.7335C38.7949 39.1477 32.1806 41.5872 26.1466 43.5619C19.7644 45.6529 13.6143 46.9307 7.34812 47.9762C7.23208 47.9762 7.11604 47.9762 7 48.0923C7 48.2085 7.11604 48.4408 7.11604 48.4408L11.2935 54.0166C11.2935 54.0166 11.6416 54.5975 11.9897 54.7136C12.3378 54.8298 12.5699 54.8298 12.918 54.8298C25.2182 54.7136 38.5628 52.855 51.2112 43.4458C58.6377 37.9861 64.2076 31.7133 67.3407 24.6273C68.269 22.6526 68.5011 20.9101 68.6171 19.6323Z" fill="#F9BC12"></path>
</svg>