<svg width="1686" height="512" viewBox="0 0 1686 512" fill="none" xmlns="http://www.w3.org/2000/svg">
<path d="M606.7 152.5H665.85L667.25 191L663.05 188.55C667.483 175.717 674.717 165.8 684.75 158.8C695.017 151.8 707.15 148.3 721.15 148.3C737.95 148.3 752.3 152.5 764.2 160.9C776.1 169.067 785.083 180.5 791.15 195.2C797.217 209.667 800.25 226.35 800.25 245.25C800.25 264.15 797.217 280.95 791.15 295.65C785.083 310.117 776.1 321.55 764.2 329.95C752.3 338.117 737.95 342.2 721.15 342.2C712.283 342.2 704 340.683 696.3 337.65C688.833 334.383 682.3 329.717 676.7 323.65C671.1 317.583 666.55 310.233 663.05 301.6L667.6 299.5V390.5H606.7V152.5ZM664.1 245.25C664.1 255.283 665.5 264.267 668.3 272.2C671.1 279.9 675.3 286.083 680.9 290.75C686.5 295.417 693.267 297.75 701.2 297.75C713.1 297.75 722.2 292.85 728.5 283.05C734.8 273.25 737.95 260.65 737.95 245.25C737.95 230.317 734.683 217.833 728.15 207.8C721.617 197.767 712.633 192.75 701.2 192.75C693.267 192.75 686.5 195.2 680.9 200.1C675.3 204.767 671.1 211.067 668.3 219C665.5 226.7 664.1 235.45 664.1 245.25ZM872.219 152.5L873.969 208.85L869.769 207.8C872.569 189.367 877.819 175.6 885.519 166.5C893.452 157.167 904.302 152.5 918.069 152.5H934.869V196.6H917.719C907.452 196.6 899.052 198.117 892.519 201.15C886.219 203.95 881.552 208.383 878.519 214.45C875.719 220.517 874.319 228.217 874.319 237.55V338H813.419V152.5H872.219ZM1027.02 342.2C1007.42 342.2 990.156 338.233 975.223 330.3C960.289 322.133 948.739 310.817 940.573 296.35C932.406 281.65 928.323 264.617 928.323 245.25C928.323 225.883 932.406 208.967 940.573 194.5C948.739 179.8 960.289 168.483 975.223 160.55C990.156 152.383 1007.42 148.3 1027.02 148.3C1046.86 148.3 1064.24 152.383 1079.17 160.55C1094.11 168.483 1105.66 179.8 1113.82 194.5C1121.99 208.967 1126.07 225.883 1126.07 245.25C1126.07 264.617 1121.99 281.65 1113.82 296.35C1105.66 310.817 1094.11 322.133 1079.17 330.3C1064.24 338.233 1046.86 342.2 1027.02 342.2ZM1027.02 297.4C1038.92 297.4 1048.02 292.85 1054.32 283.75C1060.62 274.65 1063.77 261.817 1063.77 245.25C1063.77 228.683 1060.62 215.85 1054.32 206.75C1048.02 197.65 1038.92 193.1 1027.02 193.1C1015.36 193.1 1006.37 197.65 1000.07 206.75C993.773 215.85 990.623 228.683 990.623 245.25C990.623 261.817 993.773 274.65 1000.07 283.75C1006.37 292.85 1015.36 297.4 1027.02 297.4ZM1193.61 152.5L1196.76 209.55L1188.71 207.8C1191.05 186.567 1197.58 171.4 1208.31 162.3C1219.05 152.967 1233.05 148.3 1250.31 148.3C1270.15 148.3 1285.78 154.483 1297.21 166.85C1308.65 179.217 1314.36 196.483 1314.36 218.65V338H1253.46V239.3C1253.46 228.8 1252.76 220.517 1251.36 214.45C1249.96 208.383 1247.51 203.717 1244.01 200.45C1240.51 197.183 1235.5 195.55 1228.96 195.55C1219.16 195.55 1211.81 199.167 1206.91 206.4C1202.25 213.633 1199.91 224.6 1199.91 239.3V338H1139.01V152.5H1193.61ZM1417.42 110.15V273.25C1417.42 280.017 1419.05 285.15 1422.32 288.65C1425.82 292.15 1430.72 293.9 1437.02 293.9H1466.42V338H1421.97C1400.27 338 1383.94 332.633 1372.97 321.9C1362 311.167 1356.52 294.95 1356.52 273.25V110.15H1417.42ZM1465.72 152.5V196.25H1325.02V152.5H1465.72ZM1521.99 152.5L1565.04 274.65L1606.34 152.5H1662.69L1590.59 353.75C1586.16 366.583 1579.39 375.917 1570.29 381.75C1561.42 387.583 1549.76 390.5 1535.29 390.5H1499.59V347.8H1523.04C1529.11 347.8 1533.77 346.867 1537.04 345C1540.31 343.133 1542.76 340.1 1544.39 335.9L1548.24 326.45H1532.14L1465.64 152.5H1521.99Z" fill="#22324D"/>
<g clip-path="url(#clip0_132_6)">
<rect width="512" height="512" rx="50" fill="#22324D"/>
<path d="M166.996 151.599L233.506 139.506L242.951 182.51L237.728 180.614C240.089 165.278 246.195 152.648 256.045 142.726C266.158 132.756 279.086 126.34 294.828 123.478C313.718 120.043 330.712 121.832 345.81 128.844C360.86 135.594 373.299 146.613 383.126 161.902C392.905 176.928 399.726 195.067 403.59 216.319C407.455 237.57 407.478 257.081 403.662 274.85C399.798 292.357 392.035 307.05 380.372 318.928C368.661 330.543 353.36 338.069 334.47 341.503C324.5 343.316 314.876 343.304 305.598 341.468C296.534 339.321 288.234 335.409 280.697 329.733C273.16 324.056 266.541 316.722 260.84 307.73L265.527 304.438L284.132 406.761L215.654 419.212L166.996 151.599ZM250.5 244.154C252.552 255.436 255.963 265.251 260.733 273.599C265.455 281.684 271.442 287.778 278.693 291.881C285.944 295.983 294.029 297.223 302.95 295.601C316.331 293.168 325.561 285.798 330.641 273.491C335.722 261.184 336.687 246.372 333.539 229.056C330.486 212.264 324.261 198.896 314.863 188.95C305.466 179.004 294.339 175.2 281.483 177.537C272.563 179.159 265.455 183.297 260.16 189.952C254.817 196.344 251.383 204.286 249.856 213.779C248.282 223.01 248.497 233.135 250.5 244.154Z" fill="white"/>
<rect x="-45" y="359" width="237" height="237" rx="118.5" fill="#EDFD54"/>
</g>
<defs>
<clipPath id="clip0_132_6">
<rect width="512" height="512" rx="50" fill="white"/>
</clipPath>
</defs>
</svg>
